<svg xmlns="http://www.w3.org/2000/svg" width="16.031" height="16.031" viewBox="0 0 16.031 16.031">
  <defs>
    <style>
      .cls-1 {
        fill: #b2b9bd;
        fill-rule: evenodd;
      }
    </style>
  </defs>
  <path id="G_Icon_copy" data-name="G+ Icon copy" class="cls-1" d="M957.29,139.132c-0.441-.329-1.4-1-1.4-1.456,0-.531.152-0.792,0.954-1.417a3.215,3.215,0,0,0,1.4-2.529,2.982,2.982,0,0,0-1.347-2.675h1.247l1.061-1.086h-4.749c-2.409,0-4.418,1.746-4.418,3.695a3.4,3.4,0,0,0,3.586,3.577c0.158,0,.311-0.01.46-0.02a2,2,0,0,0-.251.923,1.649,1.649,0,0,0,.682,1.233c-0.285,0-.56.008-0.861,0.008-2.76,0-4.675.873-4.675,3.574,0,1.79,2.312,3.042,5.072,3.042,3.145,0,5.108-1.663,5.08-3.568C959.112,141,958.823,140.279,957.29,139.132Zm-5.324-5.368a2.165,2.165,0,0,1,2.069-2.649c1.214,0.037,2,1.227,2.214,2.808s-0.489,2.558-1.7,2.523A2.891,2.891,0,0,1,951.966,133.764ZM954,144.828c-1.792,0-3.087-1.029-3.087-2.29,0-1.238,1.452-1.9,3.209-1.9,0.653,0,2.612,0,3.22,1.514a1.247,1.247,0,0,1,.057.445C957.4,143.865,956.52,144.828,954,144.828Zm11.011-11.813h-2V135h-1.04v-1.984H960v-1h1.969v-2.042h1.04v2.042h2v1Z" transform="translate(-948.969 -129.969)"/>
</svg>
