<svg xmlns="http://www.w3.org/2000/svg" width="16.09" height="16.062" viewBox="0 0 16.09 16.062">
  <defs>
    <style>
      .cls-1 {
        fill: #b2b9bd;
        fill-rule: evenodd;
      }
    </style>
  </defs>
  <path id="Login_Icon" data-name="Login Icon" class="cls-1" d="M1023.99,145.03h-14.03a1.029,1.029,0,0,1-1.03-1.031v-0.594a1.174,1.174,0,0,1,1.03-1.031l5.36-2.655a6.949,6.949,0,0,1-2.26-4.563v-2.578a4.094,4.094,0,0,1,4.12-3.609,3.814,3.814,0,0,1,3.84,3.609v2.578a6.694,6.694,0,0,1-2.24,4.573l5.21,2.645a1.194,1.194,0,0,1,1.03,1.031V144A1.029,1.029,0,0,1,1023.99,145.03Z" transform="translate(-1008.94 -128.969)"/>
</svg>
