<svg xmlns="http://www.w3.org/2000/svg" width="22" height="17" viewBox="0 0 22 17">
  <defs>
    <style>
      .cls-1 {
        fill: #fff;
        fill-rule: evenodd;
      }
    </style>
  </defs>
  <path id="Menu_Icon" data-name="Menu Icon" class="cls-1" d="M139.347,142.055h19.306A1.332,1.332,0,0,1,160,143.372v0.318a1.333,1.333,0,0,1-1.347,1.318H139.347A1.333,1.333,0,0,1,138,143.69v-0.318A1.332,1.332,0,0,1,139.347,142.055Zm0-14.056h19.306A1.333,1.333,0,0,1,160,129.317v0.318a1.332,1.332,0,0,1-1.347,1.317H139.347A1.332,1.332,0,0,1,138,129.635v-0.318A1.333,1.333,0,0,1,139.347,128Zm0,7.028h19.306A1.332,1.332,0,0,1,160,136.344v0.318a1.333,1.333,0,0,1-1.347,1.318H139.347A1.333,1.333,0,0,1,138,136.662v-0.318A1.332,1.332,0,0,1,139.347,135.027Z" transform="translate(-138 -128)"/>
</svg>
