<svg xmlns="http://www.w3.org/2000/svg" width="16.031" height="13" viewBox="0 0 16.031 13">
  <defs>
    <style>
      .cls-1 {
        fill: #b2b9bd;
        fill-rule: evenodd;
      }
    </style>
  </defs>
  <path id="Twitter_Icon" data-name="Twitter Icon" class="cls-1" d="M932.027,132.547a6.583,6.583,0,0,1-1.889.518,3.3,3.3,0,0,0,1.446-1.815,6.637,6.637,0,0,1-2.087.8,3.289,3.289,0,0,0-5.6,2.993,9.348,9.348,0,0,1-6.776-3.428,3.278,3.278,0,0,0,1.018,4.379,3.262,3.262,0,0,1-1.489-.411c0,0.014,0,.027,0,0.042a3.285,3.285,0,0,0,2.638,3.217,3.3,3.3,0,0,1-.867.115,3.23,3.23,0,0,1-.618-0.059,3.286,3.286,0,0,0,3.071,2.278A6.621,6.621,0,0,1,916,142.531a9.35,9.35,0,0,0,14.391-7.86c0-.142,0-0.284-0.008-0.425A6.673,6.673,0,0,0,932.027,132.547Z" transform="translate(-916 -131)"/>
</svg>
